<svg width="16" height="14" viewBox="0 0 16 14" fill="none" xmlns="http://www.w3.org/2000/svg">
<path fill-rule="evenodd" clip-rule="evenodd" d="M16 1.57843C15.4121 1.84616 14.7791 2.02721 14.1152 2.1081C14.7932 1.69207 15.3135 1.03238 15.5586 0.246541C14.9238 0.631759 14.2222 0.912001 13.4728 1.06224C12.8755 0.408329 12.0218 0 11.0771 0C9.26548 0 7.79574 1.50716 7.79574 3.36583C7.79574 3.62971 7.82391 3.88588 7.88026 4.13242C5.15208 3.99182 2.73381 2.65318 1.11381 0.614421C0.831132 1.11328 0.669596 1.69207 0.669596 2.30842C0.669596 3.47562 1.24905 4.50608 2.12995 5.10991C1.59277 5.09354 1.08563 4.94041 0.642365 4.69002V4.73143C0.642365 6.36282 1.77402 7.7236 3.27663 8.03178C3.00147 8.11075 2.71128 8.15023 2.41169 8.15023C2.20039 8.15023 1.99378 8.13001 1.79374 8.09052C2.21166 9.42723 3.42313 10.4009 4.86001 10.4269C3.7368 11.3302 2.32059 11.8685 0.783234 11.8685C0.518398 11.8685 0.256383 11.8531 0 11.8223C1.45284 12.7757 3.17896 13.3333 5.03187 13.3333C11.0705 13.3333 14.3715 8.20513 14.3715 3.75683C14.3715 3.61045 14.3687 3.46407 14.3631 3.32057C15.0045 2.84579 15.5614 2.25352 16 1.57843Z" fill="white"/>
</svg>
